<svg width="14" height="14" viewBox="0 0 14 14" fill="none" xmlns="http://www.w3.org/2000/svg">
<path fill-rule="evenodd" clip-rule="evenodd" d="M3.5 0C1.567 0 0 1.567 0 3.5V10.5C0 12.433 1.567 14 3.5 14H10.5C12.433 14 14 12.433 14 10.5V3.5C14 1.567 12.433 0 10.5 0H3.5ZM10.5028 5.21852C10.7615 4.89507 10.7091 4.42311 10.3856 4.16435C10.0622 3.90559 9.59022 3.95803 9.33146 4.28148L5.78557 8.71384L4.36711 7.65C4.03574 7.40147 3.56564 7.46863 3.31711 7.8C3.06859 8.13137 3.13574 8.60147 3.46711 8.85L5.46711 10.35C5.79119 10.5931 6.24971 10.5348 6.50277 10.2185L10.5028 5.21852Z" fill="#F7A208"/>
<path d="M3.5 0.25H10.5C12.2949 0.25 13.75 1.70507 13.75 3.5V10.5C13.75 12.2949 12.2949 13.75 10.5 13.75H3.5C1.70507 13.75 0.25 12.2949 0.25 10.5V3.5C0.25 1.70507 1.70507 0.25 3.5 0.25ZM10.542 3.96875C10.1109 3.62389 9.48178 3.69414 9.13672 4.125L5.74121 8.36816L4.51758 7.4502C4.07575 7.11882 3.44856 7.20857 3.11719 7.65039C2.78602 8.0922 2.87562 8.71848 3.31738 9.0498L5.31738 10.5498C5.7495 10.8739 6.36087 10.7966 6.69824 10.375L10.6982 5.375C11.0432 4.94375 10.9733 4.31377 10.542 3.96875Z" stroke="black" stroke-opacity="0.1" stroke-width="0.5"/>
</svg>
