<svg width="14" height="14" viewBox="0 0 14 14" fill="none" xmlns="http://www.w3.org/2000/svg">
<path fill-rule="evenodd" clip-rule="evenodd" d="M3.5 0C1.567 0 0 1.567 0 3.5V10.5C0 12.433 1.567 14 3.5 14H10.5C12.433 14 14 12.433 14 10.5V3.5C14 1.567 12.433 0 10.5 0H3.5Z" fill="#D8DBDE"/>
<path d="M3.5 0.25H10.5C12.2949 0.25 13.75 1.70507 13.75 3.5V10.5C13.75 12.2949 12.2949 13.75 10.5 13.75H3.5C1.70507 13.75 0.25 12.2949 0.25 10.5V3.5C0.25 1.70507 1.70507 0.25 3.5 0.25Z" stroke="black" stroke-opacity="0.1" stroke-width="0.5"/>
</svg>
